<?xml version="1.0" encoding="iso-8859-1"?>
<!-- Generator: Adobe Illustrator 19.0.0, SVG Export Plug-In . SVG Version: 6.00 Build 0)  -->
<svg version="1.1" id="Capa_1" xmlns="http://www.w3.org/2000/svg" xmlns:xlink="http://www.w3.org/1999/xlink" x="0px" y="0px"
	 viewBox="0 0 512 512" style="enable-background:new 0 0 512 512;" xml:space="preserve">
<g>
	<g>
		<path d="M242.228,250.414c35.164-20.95,58.776-59.352,58.776-103.173c0-66.174-53.837-120.011-120.011-120.011
			S60.983,81.067,60.983,147.24c0,43.82,23.611,82.223,58.776,103.173C67.481,274.04,30.98,326.939,30.98,388.262v78.734
			C30.98,491.811,51.169,512,75.984,512h210.019c24.815,0,45.004-20.189,45.004-45.004v-78.734
			C331.007,326.939,294.506,274.04,242.228,250.414z M90.985,147.24c0-49.63,40.378-90.008,90.008-90.008
			c49.63,0,90.008,40.378,90.008,90.008s-40.378,90.008-90.008,90.008C131.363,237.249,90.985,196.871,90.985,147.24z
			 M301.004,466.996c0,8.272-6.73,15.001-15.001,15.001H75.984c-8.272,0-15.001-6.73-15.001-15.001v-78.734
			c0-66.725,53.837-121.011,120.011-121.011s120.011,54.285,120.011,121.011V466.996z"/>
	</g>
</g>
<g>
	<g>
		<path d="M446.722,8.021c-3.856-7.333-12.929-10.15-20.26-6.294c-7.333,3.856-10.15,12.927-6.294,20.26
			c20.182,38.372,30.85,81.684,30.85,125.253s-10.668,86.881-30.851,125.254c-3.855,7.333-1.038,16.403,6.295,20.26
			c7.338,3.858,16.405,1.034,20.26-6.294c22.438-42.663,34.298-90.804,34.298-139.221C481.02,98.824,469.16,50.684,446.722,8.021z"
			/>
	</g>
</g>
<g>
	<g>
		<path d="M393.578,35.859c-3.856-7.333-12.926-10.151-20.26-6.295c-7.333,3.856-10.151,12.927-6.295,20.26
			c15.693,29.842,23.989,63.528,23.989,97.416c0,33.888-8.296,67.574-23.989,97.417c-3.856,7.333-1.038,16.403,6.295,20.26
			c7.33,3.856,16.403,1.04,20.26-6.295c17.951-34.132,27.438-72.648,27.438-111.382S411.528,69.992,393.578,35.859z"/>
	</g>
</g>
<g>
	<g>
		<path d="M340.428,63.699c-3.856-7.333-12.927-10.15-20.26-6.294c-7.333,3.856-10.15,12.927-6.294,20.26
			c11.209,21.313,17.134,45.371,17.134,69.575s-5.925,48.262-17.134,69.576c-3.856,7.333-1.039,16.404,6.295,20.26
			c7.328,3.855,16.401,1.04,20.259-6.295c13.465-25.602,20.583-54.491,20.583-83.542S353.893,89.301,340.428,63.699z"/>
	</g>
</g>
<g>
</g>
<g>
</g>
<g>
</g>
<g>
</g>
<g>
</g>
<g>
</g>
<g>
</g>
<g>
</g>
<g>
</g>
<g>
</g>
<g>
</g>
<g>
</g>
<g>
</g>
<g>
</g>
<g>
</g>
</svg>
