<?xml version="1.0" encoding="utf-8"?>
<!-- Generator: Adobe Illustrator 22.0.1, SVG Export Plug-In . SVG Version: 6.00 Build 0)  -->
<svg version="1.1" id="Livello_1" xmlns="http://www.w3.org/2000/svg" xmlns:xlink="http://www.w3.org/1999/xlink" x="0px" y="0px"
	 viewBox="0 0 430.1 195.4" style="enable-background:new 0 0 430.1 195.4;" xml:space="preserve">
<style type="text/css">
	.st0{fill:#7FBB3B;}
</style>
<g id="Guide_per_tavola_disegno">
</g>
<g id="Livello_1_1_">
	<g>
		<polygon class="st0" points="392,48.1 403.8,48.1 389.6,23.9 372.2,23.9 		"/>
		<path d="M364.8,74.2c-3.7-10-12-17.1-28.2-17.1c-11,0-20.6,3.1-26.4,6.8l3.6,11.4c5.2-3.4,12.6-5.6,19.9-5.6
			c16.5,0,16.5,12.2,16.5,18.2c-28,0-45.7,10.1-45.7,30.4c0,12.6,8.8,23.9,24,23.9c10.2,0,18.2-4.8,22.8-11.2h0.4l1.2,9.5h15.6
			c-0.6-3.3-0.9-7.3-1.1-11.5c-1.4-2-2.6-4-3.7-6.2c-2.7-5.2-4.6-11-5.3-17.3c-0.3-2.1-0.4-4.3-0.4-6.5
			C358.1,90,360.5,81.4,364.8,74.2L364.8,74.2z M350.6,113.1c0,9.5-7.7,16.6-17.1,16.6c-6.4,0-12-4-12-13.1
			c0-14.5,15.6-17.1,29.1-17.1V113.1z"/>
		<path class="st0" d="M377.9,91.2c0.9-9.5,6.2-22,18.8-22c1.3,0,2.5,0.1,3.6,0.3h0.1c10.2,2.1,13.5,12.8,13.3,21.6h-13.1h-0.1
			L377.9,91.2L377.9,91.2z M423.1,125c-5.3,2.2-11.6,3.9-20.6,3.9c-0.5,0-1,0-1.5,0h-0.1c-12.2-0.6-22.7-7.7-23.1-25.3h22.9h0.1
			h28.9c0.3-2.1,0.4-4.5,0.4-7.3c0-19.5-8.6-37.9-29.8-39.2h-0.1c-0.8,0-1.5-0.1-2.3-0.1c-7,0-13.1,1.8-18.3,4.9
			c-11.4,7.9-19.1,22-19.1,38.2c0,1.8,0.1,3.6,0.3,5.4c1.8,13.6,8.9,25.1,18.9,31.9c5.6,3.1,12.4,4.7,20.2,4.7h1h0.1
			c10.6-0.1,19.3-2.3,24.9-4.9L423.1,125z"/>
		<path d="M129.6,0H103L82.6,61.7c-5.5,17.4-9.9,33.4-13.4,48.5h-0.6c-3.5-15.4-7.7-31-12.9-48.3L36,0H9.5L0,140.7h19.8l3.1-58
			c1.1-19.6,2.2-41.9,2.6-59.3h0.6c3.5,16.9,8.4,35.3,14.1,53.6l19.3,62.4h16l20.9-63.7c5.9-17.8,11.4-35.8,15.6-52.3h0.6
			c-0.2,17.4,0.9,39.1,1.8,58.2l3.1,59.1h20.6L129.6,0z"/>
		<path d="M182.1,57.1c-21.7,0-38.6,15.6-38.6,43.2c0,26.4,16.2,42,37.4,42c18.4,0,38.3-12.6,38.3-43.2
			C219.1,74,204.5,57.1,182.1,57.1L182.1,57.1z M201.5,99.6c0,16.3-7.7,29.8-20.2,29.8c-12.6,0-20.2-13.5-20.2-29.5
			c0-14.1,5.6-29.8,20.3-29.8C195.9,70,201.5,86.1,201.5,99.6z"/>
		<path d="M298.5,21.7h-17.2v46.4H281c-3.6-6.2-11.1-11-21.7-11c-18.2,0-34.1,15.7-34.1,43.5c0,25.2,14.1,41.7,32.6,41.7
			c11.6,0,20.5-6.1,24.8-14.4h0.4l0.9,12.8H299c-0.3-5.6-0.6-14.4-0.6-21.8V21.7H298.5z M281.3,107.1c0,11.4-7.3,21.2-18.4,21.2
			c-13.1,0-20.2-12.3-20.2-28.3c0-16.2,7.3-29.2,20.5-29.2c9.6,0,18.1,7.9,18.1,21.2L281.3,107.1L281.3,107.1z"/>
	</g>
	<g>
		<path class="st0" d="M304.3,168.3c1.4-5,4-11.5,5.6-14.3l3.4-0.4c-1.3,3.5-2.9,9.7-3.5,14L304.3,168.3z"/>
		<path class="st0" d="M324,160.7h-0.1l-6.8,3.7l-1-4l8.5-4.6h4.5v39H324V160.7z"/>
		<path class="st0" d="M338.1,184.8c0-4.9,2.9-8.4,7.7-10.4l-0.1-0.2c-4.3-2-6.2-5.4-6.2-8.8c0-6.2,5.2-10.4,12.1-10.4
			c7.6,0,11.3,4.7,11.3,9.6c0,3.3-1.6,6.8-6.4,9.1v0.2c4.9,1.9,7.9,5.3,7.9,10.1c0,6.8-5.8,11.3-13.3,11.3
			C343,195.4,338.1,190.5,338.1,184.8z M359.1,184.6c0-4.7-3.3-7-8.6-8.5c-4.6,1.3-7,4.3-7,8c-0.2,4,2.8,7.4,7.8,7.4
			C356,191.6,359.1,188.6,359.1,184.6z M344.5,165.1c0,3.9,2.9,6,7.4,7.2c3.4-1.1,5.9-3.5,5.9-7.1c0-3.1-1.9-6.4-6.6-6.4
			C346.9,158.9,344.5,161.7,344.5,165.1z"/>
		<path class="st0" d="M382.6,176.6v3.9h-14.8v-3.9H382.6z"/>
		<path class="st0" d="M389.6,160.7h-0.1l-6.8,3.7l-1-4l8.5-4.6h4.5v39h-5.1V160.7z"/>
		<path class="st0" d="M407.2,191c1.1,0.1,2.5,0,4.3-0.2c3.1-0.4,5.9-1.7,8.2-3.8c2.6-2.3,4.4-5.8,5.2-10.4h-0.2
			c-2.2,2.6-5.3,4.2-9.2,4.2c-7,0-11.5-5.3-11.5-11.9c0-7.4,5.3-13.9,13.3-13.9s12.9,6.5,12.9,16.4c0,8.6-2.9,14.6-6.7,18.3
			c-3,2.9-7.1,4.7-11.3,5.2c-1.9,0.3-3.6,0.4-4.9,0.3L407.2,191L407.2,191z M409.1,168.6c0,4.9,2.9,8.3,7.5,8.3
			c3.5,0,6.3-1.7,7.7-4.1c0.3-0.5,0.5-1.1,0.5-1.9c0-6.7-2.5-11.8-8-11.8C412.3,159.1,409.1,163.1,409.1,168.6z"/>
	</g>
</g>
</svg>
